<svg width="526" height="140" viewBox="0 0 526 140" fill="none" xmlns="http://www.w3.org/2000/svg">
<path d="M100.2 26C100.2 26.6667 99.9333 27.2667 99.4 27.8C99 28.2 98.4667 28.4 97.8 28.4H35C34.3333 28.4 34 28.7333 34 29.4V54C34 54.6667 34.3333 55 35 55H75.2C75.8667 55 76.4 55.2667 76.8 55.8C77.3333 56.2 77.6 56.7333 77.6 57.4V80.8C77.6 81.4667 77.3333 82.0667 76.8 82.6C76.4 83 75.8667 83.2 75.2 83.2H35C34.3333 83.2 34 83.5333 34 84.2V110.6C34 111.267 34.3333 111.6 35 111.6H97.8C98.4667 111.6 99 111.867 99.4 112.4C99.9333 112.8 100.2 113.333 100.2 114V137.6C100.2 138.267 99.9333 138.867 99.4 139.4C99 139.8 98.4667 140 97.8 140H3.2C2.53333 140 1.93333 139.8 1.4 139.4C1 138.867 0.8 138.267 0.8 137.6V2.4C0.8 1.73333 1 1.19999 1.4 0.799992C1.93333 0.266658 2.53333 -9.53674e-06 3.2 -9.53674e-06H97.8C98.4667 -9.53674e-06 99 0.266658 99.4 0.799992C99.9333 1.19999 100.2 1.73333 100.2 2.4V26ZM192.63 2.4C192.63 1.73333 192.83 1.19999 193.23 0.799992C193.763 0.266658 194.363 -9.53674e-06 195.03 -9.53674e-06H223.43C224.096 -9.53674e-06 224.63 0.266658 225.03 0.799992C225.563 1.19999 225.83 1.73333 225.83 2.4V137.6C225.83 138.267 225.563 138.867 225.03 139.4C224.63 139.8 224.096 140 223.43 140H196.23C194.896 140 193.963 139.467 193.43 138.4L147.43 62C147.163 61.6 146.896 61.4667 146.63 61.6C146.363 61.6 146.23 61.8667 146.23 62.4L146.43 137.6C146.43 138.267 146.163 138.867 145.63 139.4C145.23 139.8 144.696 140 144.03 140H115.63C114.963 140 114.363 139.8 113.83 139.4C113.43 138.867 113.23 138.267 113.23 137.6V2.4C113.23 1.73333 113.43 1.19999 113.83 0.799992C114.363 0.266658 114.963 -9.53674e-06 115.63 -9.53674e-06H143.03C144.363 -9.53674e-06 145.296 0.533325 145.83 1.59999L191.63 77.8C191.896 78.2 192.163 78.4 192.43 78.4C192.696 78.2667 192.83 77.9333 192.83 77.4L192.63 2.4ZM334.052 140C332.585 140 331.652 139.333 331.252 138L326.052 120.2C325.785 119.667 325.452 119.4 325.052 119.4H279.452C279.052 119.4 278.718 119.667 278.452 120.2L273.252 138C272.852 139.333 271.918 140 270.452 140H239.852C239.052 140 238.452 139.8 238.052 139.4C237.652 138.867 237.585 138.133 237.852 137.2L280.652 1.99999C281.052 0.666656 281.918 -9.53674e-06 283.252 -9.53674e-06H321.052C322.385 -9.53674e-06 323.252 0.666656 323.652 1.99999L366.652 137.2C366.785 137.467 366.852 137.8 366.852 138.2C366.852 139.4 366.118 140 364.652 140H334.052ZM286.452 92.6C286.318 93.4 286.585 93.8 287.252 93.8H317.052C317.852 93.8 318.118 93.4 317.852 92.6L302.652 41.2C302.518 40.6667 302.318 40.4667 302.052 40.6C301.785 40.6 301.585 40.8 301.452 41.2L286.452 92.6Z" fill="url(#paint0_radial_2_7)"/>
<path d="M479.719 -9.53674e-06C480.385 -9.53674e-06 480.919 0.266658 481.319 0.799992C481.852 1.19999 482.119 1.73333 482.119 2.4V26.2C482.119 26.8667 481.852 27.4667 481.319 28C480.919 28.4 480.385 28.6 479.719 28.6H444.719C444.052 28.6 443.719 28.9333 443.719 29.6V137.6C443.719 138.267 443.452 138.867 442.919 139.4C442.519 139.8 441.985 140 441.319 140H412.919C412.252 140 411.652 139.8 411.119 139.4C410.719 138.867 410.519 138.267 410.519 137.6V29.6C410.519 28.9333 410.185 28.6 409.519 28.6H375.719C375.052 28.6 374.452 28.4 373.919 28C373.519 27.4667 373.319 26.8667 373.319 26.2V2.4C373.319 1.73333 373.519 1.19999 373.919 0.799992C374.452 0.266658 375.052 -9.53674e-06 375.719 -9.53674e-06H479.719ZM494.888 140C494.221 140 493.621 139.8 493.088 139.4C492.688 138.867 492.488 138.267 492.488 137.6V2.4C492.488 1.73333 492.688 1.19999 493.088 0.799992C493.621 0.266658 494.221 -9.53674e-06 494.888 -9.53674e-06H523.288C523.954 -9.53674e-06 524.488 0.266658 524.888 0.799992C525.421 1.19999 525.688 1.73333 525.688 2.4V137.6C525.688 138.267 525.421 138.867 524.888 139.4C524.488 139.8 523.954 140 523.288 140H494.888Z" fill="white"/>
<path d="M479.719 -9.53674e-06C480.385 -9.53674e-06 480.919 0.266658 481.319 0.799992C481.852 1.19999 482.119 1.73333 482.119 2.4V26.2C482.119 26.8667 481.852 27.4667 481.319 28C480.919 28.4 480.385 28.6 479.719 28.6H444.719C444.052 28.6 443.719 28.9333 443.719 29.6V137.6C443.719 138.267 443.452 138.867 442.919 139.4C442.519 139.8 441.985 140 441.319 140H412.919C412.252 140 411.652 139.8 411.119 139.4C410.719 138.867 410.519 138.267 410.519 137.6V29.6C410.519 28.9333 410.185 28.6 409.519 28.6H375.719C375.052 28.6 374.452 28.4 373.919 28C373.519 27.4667 373.319 26.8667 373.319 26.2V2.4C373.319 1.73333 373.519 1.19999 373.919 0.799992C374.452 0.266658 375.052 -9.53674e-06 375.719 -9.53674e-06H479.719ZM494.888 140C494.221 140 493.621 139.8 493.088 139.4C492.688 138.867 492.488 138.267 492.488 137.6V2.4C492.488 1.73333 492.688 1.19999 493.088 0.799992C493.621 0.266658 494.221 -9.53674e-06 494.888 -9.53674e-06H523.288C523.954 -9.53674e-06 524.488 0.266658 524.888 0.799992C525.421 1.19999 525.688 1.73333 525.688 2.4V137.6C525.688 138.267 525.421 138.867 524.888 139.4C524.488 139.8 523.954 140 523.288 140H494.888Z" fill="url(#paint1_linear_2_7)"/>
<defs>
<radialGradient id="paint0_radial_2_7" cx="0" cy="0" r="1" gradientUnits="userSpaceOnUse" gradientTransform="translate(263.5 -65.9937) rotate(80.851) scale(208.167 390.584)">
<stop stop-color="#41E7FE"/>
<stop offset="1" stop-color="#006C8E"/>
</radialGradient>
<linearGradient id="paint1_linear_2_7" x1="263.5" y1="-86" x2="263.5" y2="205" gradientUnits="userSpaceOnUse">
<stop stop-color="#EC962C"/>
<stop offset="1" stop-color="#F95859"/>
</linearGradient>
</defs>
</svg>
