<svg width="387" height="390" viewBox="0 0 387 390" fill="none" xmlns="http://www.w3.org/2000/svg">
<path d="M386.321 124.784C385.215 115.95 380.283 107.145 376.097 98.9325C370.192 87.3403 366.042 71.924 374.885 62.3849C377.337 59.7391 380.924 56.6488 379.472 53.3539C378.662 51.5265 376.492 50.5316 375.773 48.6972C374.364 45.0566 379.212 42.1567 380.402 38.4385C381.812 34.0358 377.33 29.5415 372.736 29.0617C368.142 28.5819 363.731 30.755 359.552 32.7517C343.652 40.3434 326.904 46.0113 309.665 49.6356C307.311 50.1295 304.591 50.5034 302.745 48.93C300.3 46.8839 299.222 41.6558 296.277 42.8764C291.823 44.7179 257.36 47.3919 250.814 45.8186C249.602 45.5293 248.319 45.113 247.15 45.5363C242.845 47.0956 244.451 57.3049 240.181 55.654C238.321 54.9484 238.391 52.3308 238.631 50.3553C239.253 44.9738 238.685 39.5212 236.97 34.3834C235.254 29.2456 232.432 24.5481 228.703 20.6233C226.772 18.6125 224.186 16.7075 221.459 17.2437C219.155 17.6952 217.541 19.7343 216.21 21.6746C210.638 29.767 206.094 38.5219 202.681 47.7377C193.112 42.693 165.201 36.7875 160.593 26.9733C156.471 18.2103 171.592 6.89324 164.821 0C154.702 5.27753 150.087 16.9615 146.331 27.7211L133.5 64.2335C132.02 68.4244 130.548 72.6225 129.202 76.8558C123.452 94.9603 120.098 113.735 115.109 132.065C114.482 134.358 113.792 136.715 112.248 138.514C110.135 141.026 107.013 141.83 103.687 142.296V142.599C103.687 144.18 103.722 145.767 103.729 147.348C103.729 153.105 103.786 158.538 104.857 163.857C106.266 170.772 110.402 179.041 117.9 181.496C118.604 181.743 119.415 181.934 120.183 182.131C122.409 182.696 124.939 183.338 127.081 185.088C129.223 186.837 130.343 189.159 131.351 191.212C132.14 192.827 132.88 194.351 133.937 195.24C135.262 196.362 137.397 196.764 139.659 197.188C142.787 197.78 146.338 198.451 148.931 201.273C151.165 203.707 151.75 206.741 152.243 209.415C152.445 210.976 152.885 212.496 153.547 213.923C154.441 215.253 155.548 216.426 156.823 217.395C158.253 218.538 159.545 219.845 160.671 221.289C165.363 227.682 163.489 235.866 161.065 243.035C160.361 245.151 159.473 247.719 157.542 249.864C153.596 254.33 147.487 254.704 142.04 254.711H121.225C117.54 254.711 115.18 255.417 114.75 256.701C114.644 257.122 114.578 257.552 114.553 257.985C114.49 258.824 114.341 259.654 114.109 260.462C113.164 263.46 110.36 265.817 106.604 266.755C105.261 267.06 103.897 267.272 102.525 267.39C101.519 267.479 100.52 267.623 99.5299 267.821C95.894 268.639 92.7232 271.108 89.3691 273.719C87.9246 274.848 86.4238 276.019 84.8524 277.077C78.2304 281.433 70.4739 283.74 62.5509 283.71C55.2306 283.765 48.0374 281.794 41.7643 278.016C39.8407 276.83 38.0509 275.504 36.3176 274.22C35.1126 273.324 33.9782 272.477 32.7944 271.68C31.4908 270.798 30.1591 269.98 28.7428 269.119C26.9107 267.997 25.0223 266.84 23.2044 265.527C17.1018 261.07 12.2484 255.115 9.1118 248.234C0.973322 260.144 -2.11296 275.617 1.4877 289.671C4.30622 300.615 10.7959 311.544 7.82937 322.444C13.0295 321.965 20.2731 323.15 20.3647 328.399C20.4281 332.357 15.7353 335.398 16.3342 339.314C17.1234 344.521 24.6489 343.816 29.9054 343.547C45.365 342.743 56.625 357.764 70.9149 363.726C76.6858 366.139 82.957 367.042 88.9464 368.856C100.747 372.47 111.192 379.549 118.928 389.176C119.767 384.484 120.725 379.531 123.903 375.989C127.426 372.094 132.718 370.485 137.051 367.522C150.059 358.703 153.096 344.359 158.19 343.533C163.285 342.708 168.647 344.112 173.692 343.004C178.625 341.932 182.852 338.552 187.785 337.557C192.717 336.562 240.385 321.097 261.285 331.017C266.069 333.289 271.051 336.379 276.258 335.391C279.119 334.855 281.599 333.126 283.974 331.44L302.703 318.183C303.992 317.273 305.324 316.313 306.064 314.923C307.304 312.602 308.572 295.372 307.988 289.467C307.403 283.561 300.878 277.564 296.009 280.93C299.088 275.187 303.971 270.678 308.241 265.76C312.511 260.843 316.351 255.029 316.57 248.517C316.908 238.286 306.17 239.217 303.006 231.887C299.539 223.879 310.362 207.94 309.143 197.237C314.865 198.839 320.875 200.454 326.674 199.142C332.473 197.83 337.836 192.531 337.032 186.633C336.243 180.875 330.134 175.16 333.333 170.32C334.601 168.408 337.173 167.174 337.307 164.888C337.399 163.208 336.081 161.832 335.257 160.372C331.987 154.629 338.484 146.353 344.833 148.173C346.947 148.787 349.483 150.191 351.174 148.737C352.076 147.968 352.288 146.677 352.443 145.506L354.049 133.286C357.424 131.698 361.314 134.245 363.689 137.124C366.063 140.003 368.092 143.53 371.58 144.843C377.365 147.023 383.496 141.597 385.398 135.713C386.512 132.184 386.827 128.45 386.321 124.784Z" fill="#F95859"/>
<path d="M386.321 124.784C385.215 115.95 380.283 107.145 376.097 98.9325C370.192 87.3403 366.042 71.924 374.885 62.3849C377.337 59.7391 380.924 56.6488 379.472 53.3539C378.662 51.5265 376.492 50.5316 375.773 48.6972C374.364 45.0566 379.212 42.1567 380.402 38.4385C381.812 34.0358 377.33 29.5415 372.736 29.0617C368.142 28.5819 363.731 30.755 359.552 32.7517C343.652 40.3434 326.904 46.0113 309.665 49.6356C307.311 50.1295 304.591 50.5034 302.745 48.93C300.3 46.8839 299.222 41.6558 296.277 42.8764C291.823 44.7179 257.36 47.3919 250.814 45.8186C249.602 45.5293 248.319 45.113 247.15 45.5363C242.845 47.0956 244.451 57.3049 240.181 55.654C238.321 54.9484 238.391 52.3308 238.631 50.3553C239.253 44.9738 238.685 39.5212 236.97 34.3834C235.254 29.2456 232.432 24.5481 228.703 20.6233C226.772 18.6125 224.186 16.7075 221.459 17.2437C219.155 17.6952 217.541 19.7343 216.21 21.6746C210.638 29.767 206.094 38.5219 202.681 47.7377C193.112 42.693 165.201 36.7875 160.593 26.9733C156.471 18.2103 171.592 6.89324 164.821 0C154.702 5.27753 150.087 16.9615 146.331 27.7211L133.5 64.2335C132.02 68.4244 130.548 72.6225 129.202 76.8558C123.452 94.9603 120.098 113.735 115.109 132.065C114.482 134.358 113.792 136.715 112.248 138.514C110.135 141.026 107.013 141.83 103.687 142.296V142.599C103.687 144.18 103.722 145.767 103.729 147.348C103.729 153.105 103.786 158.538 104.857 163.857C106.266 170.772 110.402 179.041 117.9 181.496C118.604 181.743 119.415 181.934 120.183 182.131C122.409 182.696 124.939 183.338 127.081 185.088C129.223 186.837 130.343 189.159 131.351 191.212C132.14 192.827 132.88 194.351 133.937 195.24C135.262 196.362 137.397 196.764 139.659 197.188C142.787 197.78 146.338 198.451 148.931 201.273C151.165 203.707 151.75 206.741 152.243 209.415C152.445 210.976 152.885 212.496 153.547 213.923C154.441 215.253 155.548 216.426 156.823 217.395C158.253 218.538 159.545 219.845 160.671 221.289C165.363 227.682 163.489 235.866 161.065 243.035C160.361 245.151 159.473 247.719 157.542 249.864C153.596 254.33 147.487 254.704 142.04 254.711H121.225C117.54 254.711 115.18 255.417 114.75 256.701C114.644 257.122 114.578 257.552 114.553 257.985C114.49 258.824 114.341 259.654 114.109 260.462C113.164 263.46 110.36 265.817 106.604 266.755C105.261 267.06 103.897 267.272 102.525 267.39C101.519 267.479 100.52 267.623 99.5299 267.821C95.894 268.639 92.7232 271.108 89.3691 273.719C87.9246 274.848 86.4238 276.019 84.8524 277.077C78.2304 281.433 70.4739 283.74 62.5509 283.71C55.2306 283.765 48.0374 281.794 41.7643 278.016C39.8407 276.83 38.0509 275.504 36.3176 274.22C35.1126 273.324 33.9782 272.477 32.7944 271.68C31.4908 270.798 30.1591 269.98 28.7428 269.119C26.9107 267.997 25.0223 266.84 23.2044 265.527C17.1018 261.07 12.2484 255.115 9.1118 248.234C0.973322 260.144 -2.11296 275.617 1.4877 289.671C4.30622 300.615 10.7959 311.544 7.82937 322.444C13.0295 321.965 20.2731 323.15 20.3647 328.399C20.4281 332.357 15.7353 335.398 16.3342 339.314C17.1234 344.521 24.6489 343.816 29.9054 343.547C45.365 342.743 56.625 357.764 70.9149 363.726C76.6858 366.139 82.957 367.042 88.9464 368.856C100.747 372.47 111.192 379.549 118.928 389.176C119.767 384.484 120.725 379.531 123.903 375.989C127.426 372.094 132.718 370.485 137.051 367.522C150.059 358.703 153.096 344.359 158.19 343.533C163.285 342.708 168.647 344.112 173.692 343.004C178.625 341.932 182.852 338.552 187.785 337.557C192.717 336.562 240.385 321.097 261.285 331.017C266.069 333.289 271.051 336.379 276.258 335.391C279.119 334.855 281.599 333.126 283.974 331.44L302.703 318.183C303.992 317.273 305.324 316.313 306.064 314.923C307.304 312.602 308.572 295.372 307.988 289.467C307.403 283.561 300.878 277.564 296.009 280.93C299.088 275.187 303.971 270.678 308.241 265.76C312.511 260.843 316.351 255.029 316.57 248.517C316.908 238.286 306.17 239.217 303.006 231.887C299.539 223.879 310.362 207.94 309.143 197.237C314.865 198.839 320.875 200.454 326.674 199.142C332.473 197.83 337.836 192.531 337.032 186.633C336.243 180.875 330.134 175.16 333.333 170.32C334.601 168.408 337.173 167.174 337.307 164.888C337.399 163.208 336.081 161.832 335.257 160.372C331.987 154.629 338.484 146.353 344.833 148.173C346.947 148.787 349.483 150.191 351.174 148.737C352.076 147.968 352.288 146.677 352.443 145.506L354.049 133.286C357.424 131.698 361.314 134.245 363.689 137.124C366.063 140.003 368.092 143.53 371.58 144.843C377.365 147.023 383.496 141.597 385.398 135.713C386.512 132.184 386.827 128.45 386.321 124.784Z" fill="url(#paint0_radial_2_1306)"/>
<path d="M142.104 251.642C146.825 251.642 152.152 251.374 155.28 247.839C156.689 246.21 157.457 244.107 158.155 242.054C160.269 235.831 162.087 228.423 158.197 223.131C156.083 220.266 152.61 218.552 150.869 215.455C148.755 211.701 149.58 206.55 146.641 203.375C143.02 199.431 136.023 201.061 131.929 197.611C128.8 194.972 128.293 190.083 125.115 187.486C122.839 185.631 119.703 185.37 116.913 184.438C108.613 181.694 103.525 173.044 101.813 164.457C100.404 157.31 100.728 149.958 100.587 142.649C97.9163 142.938 95.2246 143.262 92.8359 144.257C80.6669 149.365 82.6258 167.583 74.889 178.293C65.4892 191.311 43.3638 190.887 35.9511 205.104C32.3575 212.004 33.3581 220.683 29.3769 227.364C26.5584 232.063 21.7317 235.069 17.5744 238.653C15.2288 240.673 13.0859 242.918 11.1764 245.356L11.3455 245.751C14.2598 252.632 18.9843 258.591 25.0153 262.995C28.0663 265.203 31.4063 266.981 34.5278 269.091C37.5154 271.123 40.2987 273.458 43.3779 275.356C55.3566 282.708 71.5631 282.411 83.2036 274.545C88.3544 271.08 92.8711 266.198 98.9309 264.843C101.235 264.328 103.638 264.363 105.928 263.792C108.218 263.22 110.536 261.831 111.241 259.559C111.628 258.317 111.487 256.955 111.903 255.72C113.08 252.256 117.639 251.649 121.296 251.642H142.104Z" fill="url(#paint1_linear_2_1306)"/>
<defs>
<radialGradient id="paint0_radial_2_1306" cx="0" cy="0" r="1" gradientUnits="userSpaceOnUse" gradientTransform="translate(95 222) rotate(59.5499) scale(193.923 192.618)">
<stop stop-color="#13AED9"/>
<stop offset="1" stop-color="#0A7F9F"/>
</radialGradient>
<linearGradient id="paint1_linear_2_1306" x1="193.278" y1="0" x2="193.278" y2="389.176" gradientUnits="userSpaceOnUse">
<stop stop-color="#EC962C"/>
<stop offset="1" stop-color="#F95859"/>
</linearGradient>
</defs>
</svg>
